<svg width="24" height="25" viewBox="0 0 24 25" fill="none" xmlns="http://www.w3.org/2000/svg">
<path fill-rule="evenodd" clip-rule="evenodd" d="M5 1.86035C4.27065 1.86035 3.57118 2.15008 3.05546 2.66581C2.53973 3.18153 2.25 3.88101 2.25 4.61035C2.25 5.3397 2.53973 6.03917 3.05546 6.5549C3.57118 7.07062 4.27065 7.36035 5 7.36035C5.72935 7.36035 6.42882 7.07062 6.94454 6.5549C7.46027 6.03917 7.75 5.3397 7.75 4.61035C7.75 3.88101 7.46027 3.18153 6.94454 2.66581C6.42882 2.15008 5.72935 1.86035 5 1.86035ZM3.75 4.61035C3.75 4.27883 3.8817 3.96089 4.11612 3.72647C4.35054 3.49205 4.66848 3.36035 5 3.36035C5.33152 3.36035 5.64946 3.49205 5.88388 3.72647C6.1183 3.96089 6.25 4.27883 6.25 4.61035C6.25 4.94187 6.1183 5.25981 5.88388 5.49424C5.64946 5.72866 5.33152 5.86035 5 5.86035C4.66848 5.86035 4.35054 5.72866 4.11612 5.49424C3.8817 5.25981 3.75 4.94187 3.75 4.61035ZM2.25 8.61035C2.25 8.41144 2.32902 8.22067 2.46967 8.08002C2.61032 7.93937 2.80109 7.86035 3 7.86035H7C7.19891 7.86035 7.38968 7.93937 7.53033 8.08002C7.67098 8.22067 7.75 8.41144 7.75 8.61035V21.6104C7.75 21.8093 7.67098 22 7.53033 22.1407C7.38968 22.2813 7.19891 22.3604 7 22.3604H3C2.80109 22.3604 2.61032 22.2813 2.46967 22.1407C2.32902 22 2.25 21.8093 2.25 21.6104V8.61035ZM3.75 9.36035V20.8604H6.25V9.36035H3.75ZM9.25 8.61035C9.25 8.41144 9.32902 8.22067 9.46967 8.08002C9.61032 7.93937 9.80109 7.86035 10 7.86035H14C14.1989 7.86035 14.3897 7.93937 14.5303 8.08002C14.671 8.22067 14.75 8.41144 14.75 8.61035V9.04435L15.185 8.85735C15.935 8.53683 16.7307 8.33605 17.543 8.26235C20.318 8.01035 22.75 10.1904 22.75 12.9904V21.6104C22.75 21.8093 22.671 22 22.5303 22.1407C22.3897 22.2813 22.1989 22.3604 22 22.3604H18C17.8011 22.3604 17.6103 22.2813 17.4697 22.1407C17.329 22 17.25 21.8093 17.25 21.6104V14.6104C17.25 14.2788 17.1183 13.9609 16.8839 13.7265C16.6495 13.492 16.3315 13.3604 16 13.3604C15.6685 13.3604 15.3505 13.492 15.1161 13.7265C14.8817 13.9609 14.75 14.2788 14.75 14.6104V21.6104C14.75 21.8093 14.671 22 14.5303 22.1407C14.3897 22.2813 14.1989 22.3604 14 22.3604H10C9.80109 22.3604 9.61032 22.2813 9.46967 22.1407C9.32902 22 9.25 21.8093 9.25 21.6104V8.61035ZM10.75 9.36035V20.8604H13.25V14.6104C13.25 13.881 13.5397 13.1815 14.0555 12.6658C14.5712 12.1501 15.2707 11.8604 16 11.8604C16.7293 11.8604 17.4288 12.1501 17.9445 12.6658C18.4603 13.1815 18.75 13.881 18.75 14.6104V20.8604H21.25V12.9904C21.25 11.0864 19.589 9.58235 17.68 9.75635C17.0242 9.81602 16.3817 9.97798 15.776 10.2364L14.296 10.8714C14.1818 10.9204 14.0573 10.9403 13.9336 10.9293C13.8098 10.9183 13.6907 10.8767 13.587 10.8083C13.4833 10.7399 13.3982 10.6468 13.3394 10.5373C13.2806 10.4279 13.2499 10.3056 13.25 10.1814V9.36035H10.75Z" fill="#434343"/>
</svg>
