<svg width="24" height="24" viewBox="0 0 24 24" fill="none" xmlns="http://www.w3.org/2000/svg">
<path d="M7.05629 2.41732L8.22329 2.06632C8.86258 1.87355 9.55017 1.91995 10.1578 2.19688C10.7653 2.47381 11.2514 2.96234 11.5253 3.57132L12.4273 5.57732C12.6628 6.10112 12.7283 6.6855 12.6148 7.24846C12.5013 7.81142 12.2143 8.32471 11.7943 8.71632L10.2993 10.1093C10.2556 10.15 10.2279 10.205 10.2213 10.2643C10.1773 10.6613 10.4463 11.4343 11.0673 12.5093C11.5173 13.2903 11.9263 13.8393 12.2733 14.1463C12.5163 14.3613 12.6493 14.4073 12.7063 14.3913L14.7163 13.7763C15.2652 13.6084 15.8529 13.6165 16.397 13.7994C16.9411 13.9823 17.4143 14.3309 17.7503 14.7963L19.0303 16.5723C19.42 17.1123 19.6005 17.7753 19.5383 18.4383C19.4761 19.1013 19.1755 19.7192 18.6923 20.1773L17.8053 21.0173C17.3351 21.4626 16.7575 21.7786 16.1289 21.9344C15.5003 22.0902 14.8421 22.0805 14.2183 21.9063C11.4643 21.1373 8.99529 18.8133 6.78329 14.9823C4.56929 11.1463 3.79129 7.84232 4.50929 5.06932C4.67046 4.44566 4.98957 3.87402 5.43586 3.40952C5.88215 2.94502 6.43956 2.60331 7.05629 2.41732ZM7.48929 3.85432C7.11917 3.96563 6.78397 4.1704 6.51599 4.44889C6.24801 4.72738 6.05628 5.0702 5.95929 5.44432C5.35729 7.77632 6.04629 10.7053 8.08229 14.2323C10.1163 17.7543 12.3053 19.8143 14.6223 20.4623C14.9966 20.5667 15.3915 20.5724 15.7686 20.4788C16.1458 20.3852 16.4922 20.1956 16.7743 19.9283L17.6603 19.0883C17.8801 18.8801 18.0169 18.5992 18.0452 18.2978C18.0735 17.9963 17.9915 17.6948 17.8143 17.4493L16.5343 15.6743C16.3815 15.4625 16.1663 15.3039 15.9188 15.2207C15.6713 15.1375 15.404 15.1338 15.1543 15.2103L13.1393 15.8273C11.9693 16.1753 10.9083 15.2343 9.76829 13.2593C8.99929 11.9293 8.64129 10.8993 8.73129 10.0983C8.77729 9.68232 8.97129 9.29832 9.27629 9.01232L10.7713 7.61932C10.9621 7.44122 11.0924 7.20783 11.1439 6.95191C11.1954 6.69598 11.1654 6.43036 11.0583 6.19232L10.1573 4.18632C10.0328 3.90951 9.81182 3.68746 9.53562 3.56159C9.25943 3.43573 8.94687 3.41467 8.65629 3.50232L7.48929 3.85432Z" fill="#434343" stroke="#434343" stroke-width="0.3"/>
</svg>
