<svg width="32" height="32" viewBox="0 0 32 32" fill="none" xmlns="http://www.w3.org/2000/svg">
<path d="M23.3823 2.07592C23.5652 2.15151 23.7216 2.27966 23.8316 2.44414C23.9416 2.60862 24.0003 2.80204 24.0003 2.99992V7.99992H29.0003C29.1984 7.99957 29.3921 8.05802 29.5569 8.16788C29.7216 8.27774 29.8501 8.43405 29.9259 8.61699C30.0017 8.79994 30.0216 9.00129 29.9828 9.1955C29.9441 9.38972 29.8486 9.56806 29.7083 9.70792L25.7083 13.7079C25.6153 13.8007 25.5049 13.8743 25.3834 13.9244C25.2619 13.9745 25.1318 14.0002 25.0003 13.9999H19.4143L17.9343 15.4819C18.0134 15.7784 18.0233 16.0891 17.9632 16.39C17.9031 16.691 17.7746 16.974 17.5877 17.2174C17.4008 17.4608 17.1604 17.6579 16.8852 17.7936C16.61 17.9293 16.3072 17.9999 16.0003 17.9999C15.4699 17.9999 14.9612 17.7892 14.5861 17.4141C14.2111 17.0391 14.0003 16.5304 14.0003 15.9999L14.0023 15.9079C14.0161 15.6092 14.0966 15.3173 14.238 15.0538C14.3795 14.7903 14.5782 14.5618 14.8196 14.3853C15.061 14.2087 15.339 14.0886 15.6329 14.0337C15.9269 13.9787 16.2295 13.9904 16.5183 14.0679L18.0003 12.5859V6.99992C18.0001 6.86851 18.0258 6.73834 18.0759 6.61686C18.126 6.49538 18.1995 6.38496 18.2923 6.29192L22.2923 2.29192C22.4323 2.15216 22.6106 2.05703 22.8046 2.01859C22.9986 1.98014 23.1997 2.00009 23.3823 2.07592ZM24.5863 11.9999L26.5863 9.99992H23.0003C22.7351 9.99992 22.4808 9.89456 22.2932 9.70703C22.1057 9.51949 22.0003 9.26514 22.0003 8.99992V5.41392L20.0003 7.41392V11.9999H24.5863ZM27.8903 14.3519C28.2354 16.8422 27.7896 19.378 26.6159 21.6013C25.4422 23.8245 23.5999 25.623 21.3489 26.7429C19.098 27.8627 16.5523 28.2473 14.071 27.8423C11.5898 27.4373 9.29836 26.2633 7.52029 24.4859C5.74222 22.7086 4.5673 20.4176 4.16137 17.9365C3.75544 15.4554 4.13902 12.9095 5.25796 10.6582C6.3769 8.40681 8.17468 6.56376 10.3975 5.38918C12.6203 4.2146 15.1559 3.76782 17.6463 4.11192L16.8803 4.87792C16.5633 5.19497 16.3214 5.57905 16.1723 6.00192L16.0003 5.99992C14.0153 6.00021 12.0752 6.5913 10.4272 7.69791C8.77917 8.80452 7.4978 10.3766 6.74624 12.2139C5.99468 14.0512 5.80695 16.0706 6.20695 18.015C6.60695 19.9593 7.57658 21.7406 8.99236 23.1321C10.4081 24.5235 12.206 25.4621 14.157 25.8283C16.108 26.1945 18.1239 25.9718 19.9479 25.1884C21.7719 24.4051 23.3214 23.0967 24.3993 21.4297C25.4771 19.7627 26.0345 17.8127 26.0003 15.8279C26.4216 15.6789 26.8042 15.4377 27.1203 15.1219L27.8903 14.3519ZM16.0003 8.99992C14.6159 8.99992 13.2625 9.41046 12.1114 10.1796C10.9602 10.9488 10.063 12.0421 9.53319 13.3211C9.00338 14.6002 8.86475 16.0077 9.13485 17.3656C9.40495 18.7234 10.0716 19.9707 11.0506 20.9497C12.0296 21.9286 13.2768 22.5953 14.6347 22.8654C15.9926 23.1355 17.4 22.9969 18.6791 22.4671C19.9582 21.9373 21.0515 21.0401 21.8206 19.8889C22.5898 18.7378 23.0003 17.3844 23.0003 15.9999H21.0003C21.0003 16.9888 20.7071 17.9555 20.1577 18.7778C19.6083 19.6 18.8274 20.2409 17.9138 20.6193C17.0001 20.9978 15.9948 21.0968 15.0249 20.9038C14.055 20.7109 13.1641 20.2347 12.4648 19.5355C11.7655 18.8362 11.2893 17.9453 11.0964 16.9754C10.9035 16.0055 11.0025 15.0001 11.3809 14.0865C11.7594 13.1729 12.4002 12.392 13.2225 11.8426C14.0447 11.2932 15.0114 10.9999 16.0003 10.9999V8.99992Z" fill="#1D1D1D"/>
</svg>
