<svg width="12" height="16" viewBox="0 0 12 16" fill="none" xmlns="http://www.w3.org/2000/svg">
<path d="M6 1.99984C4.76232 1.99984 3.57534 2.4915 2.70017 3.36667C1.825 4.24184 1.33333 5.42883 1.33333 6.6665C1.33333 8.5745 2.52133 10.4152 3.82533 11.8412C4.49245 12.5672 5.21995 13.2354 6 13.8385C6.78003 13.2359 7.50753 12.5681 8.17467 11.8425C9.47867 10.4152 10.6667 8.57517 10.6667 6.6665C10.6667 5.42883 10.175 4.24184 9.29983 3.36667C8.42466 2.4915 7.23768 1.99984 6 1.99984ZM6 15.4758L5.622 15.2158L5.62 15.2145L5.616 15.2112L5.60267 15.2018L5.55267 15.1665C5.27662 14.9658 5.00672 14.7569 4.74333 14.5398C4.06825 13.9853 3.4327 13.3843 2.84133 12.7412C1.47867 11.2505 0 9.09117 0 6.6665C2.37122e-08 5.07521 0.632141 3.54908 1.75736 2.42386C2.88258 1.29864 4.4087 0.666504 6 0.666504C7.5913 0.666504 9.11742 1.29864 10.2426 2.42386C11.3679 3.54908 12 5.07521 12 6.6665C12 9.09117 10.5213 11.2512 9.15867 12.7412C8.38658 13.581 7.53952 14.3486 6.628 15.0345C6.55205 15.0913 6.47537 15.147 6.398 15.2018L6.384 15.2112L6.38 15.2145L6.37867 15.2152L6 15.4752V15.4758ZM6 5.33317C5.64638 5.33317 5.30724 5.47365 5.05719 5.7237C4.80714 5.97374 4.66667 6.31288 4.66667 6.6665C4.66667 7.02013 4.80714 7.35926 5.05719 7.60931C5.30724 7.85936 5.64638 7.99984 6 7.99984C6.35362 7.99984 6.69276 7.85936 6.94281 7.60931C7.19286 7.35926 7.33333 7.02013 7.33333 6.6665C7.33333 6.31288 7.19286 5.97374 6.94281 5.7237C6.69276 5.47365 6.35362 5.33317 6 5.33317ZM3.33333 6.6665C3.33333 5.95926 3.61428 5.28098 4.11438 4.78089C4.61448 4.28079 5.29276 3.99984 6 3.99984C6.70724 3.99984 7.38552 4.28079 7.88562 4.78089C8.38572 5.28098 8.66667 5.95926 8.66667 6.6665C8.66667 7.37375 8.38572 8.05203 7.88562 8.55212C7.38552 9.05222 6.70724 9.33317 6 9.33317C5.29276 9.33317 4.61448 9.05222 4.11438 8.55212C3.61428 8.05203 3.33333 7.37375 3.33333 6.6665Z" fill="#434343"/>
</svg>
