<svg width="24" height="24" viewBox="0 0 24 24" fill="none" xmlns="http://www.w3.org/2000/svg">
<path d="M6 4H19C19.7956 4 20.5587 4.31607 21.1213 4.87868C21.6839 5.44129 22 6.20435 22 7V16C22 16.7956 21.6839 17.5587 21.1213 18.1213C20.5587 18.6839 19.7956 19 19 19H6C5.20435 19 4.44129 18.6839 3.87868 18.1213C3.31607 17.5587 3 16.7956 3 16V7C3 6.20435 3.31607 5.44129 3.87868 4.87868C4.44129 4.31607 5.20435 4 6 4ZM6 5C5.5 5 5.06 5.17 4.72 5.47L12.5 10.5L20.28 5.47C19.94 5.17 19.5 5 19 5H6ZM12.5 11.71L4.13 6.28C4.05 6.5 4 6.75 4 7V16C4 16.5304 4.21071 17.0391 4.58579 17.4142C4.96086 17.7893 5.46957 18 6 18H19C19.5304 18 20.0391 17.7893 20.4142 17.4142C20.7893 17.0391 21 16.5304 21 16V7C21 6.75 20.95 6.5 20.87 6.28L12.5 11.71Z" fill="#434343" stroke="#434343" stroke-width="0.5"/>
</svg>
