<svg width="32" height="32" viewBox="0 0 32 32" fill="none" xmlns="http://www.w3.org/2000/svg">
<path d="M4 14.6665H0V11.9998H4V14.6665ZM4 18.6665H0V21.3332H4V18.6665ZM6.66667 6.8265L3.84 3.99984L1.94667 5.87984L4.78667 8.71984L6.66667 6.8265ZM13.3333 6.6665V2.6665H10.6667V6.6665H13.3333ZM32 11.9998H28V14.6665H32V11.9998ZM21.3333 6.6665V2.6665H18.6667V6.6665H21.3333ZM27.2133 8.71984L30.0533 5.89317L28.16 3.99984L25.3333 6.8265L27.2133 8.71984ZM32 18.6665H28V21.3332H32V18.6665ZM25.3333 11.9998V21.3332C25.3333 22.7998 24.1333 23.9998 22.6667 23.9998H20V26.6665H12V23.9998H9.33333C7.86667 23.9998 6.66667 22.7998 6.66667 21.3332V11.9998C6.66667 10.5332 7.86667 9.33317 9.33333 9.33317H22.6667C24.1333 9.33317 25.3333 10.5332 25.3333 11.9998ZM22.6667 11.9998H9.33333V21.3332H22.6667V11.9998ZM25.3333 26.5065L28.16 29.3332L30.0533 27.4532L27.2133 24.6265L25.3333 26.5065ZM4.78667 24.6132L1.96 27.4532L3.84 29.3332L6.66667 26.5065L4.78667 24.6132Z" fill="#1D1D1D"/>
</svg>
