<svg width="32" height="32" viewBox="0 0 32 32" fill="none" xmlns="http://www.w3.org/2000/svg">
<path d="M16.0003 26.6665C18.8293 26.6665 21.5424 25.5427 23.5428 23.5423C25.5432 21.5419 26.667 18.8288 26.667 15.9998C26.667 13.1709 25.5432 10.4578 23.5428 8.45736C21.5424 6.45698 18.8293 5.33317 16.0003 5.33317C13.1713 5.33317 10.4582 6.45698 8.45785 8.45736C6.45747 10.4578 5.33366 13.1709 5.33366 15.9998C5.33366 18.8288 6.45747 21.5419 8.45785 23.5423C10.4582 25.5427 13.1713 26.6665 16.0003 26.6665ZM16.0003 29.3332C8.63633 29.3332 2.66699 23.3638 2.66699 15.9998C2.66699 8.63584 8.63633 2.6665 16.0003 2.6665C23.3643 2.6665 29.3337 8.63584 29.3337 15.9998C29.3337 23.3638 23.3643 29.3332 16.0003 29.3332ZM16.0003 21.3332C17.4148 21.3332 18.7714 20.7713 19.7716 19.7711C20.7718 18.7709 21.3337 17.4143 21.3337 15.9998C21.3337 14.5853 20.7718 13.2288 19.7716 12.2286C18.7714 11.2284 17.4148 10.6665 16.0003 10.6665C14.5858 10.6665 13.2293 11.2284 12.2291 12.2286C11.2289 13.2288 10.667 14.5853 10.667 15.9998C10.667 17.4143 11.2289 18.7709 12.2291 19.7711C13.2293 20.7713 14.5858 21.3332 16.0003 21.3332ZM16.0003 23.9998C13.8786 23.9998 11.8438 23.157 10.3435 21.6567C8.84318 20.1564 8.00033 18.1216 8.00033 15.9998C8.00033 13.8781 8.84318 11.8433 10.3435 10.343C11.8438 8.84269 13.8786 7.99984 16.0003 7.99984C18.1221 7.99984 20.1569 8.84269 21.6572 10.343C23.1575 11.8433 24.0003 13.8781 24.0003 15.9998C24.0003 18.1216 23.1575 20.1564 21.6572 21.6567C20.1569 23.157 18.1221 23.9998 16.0003 23.9998ZM16.0003 18.6665C15.2931 18.6665 14.6148 18.3856 14.1147 17.8855C13.6146 17.3854 13.3337 16.7071 13.3337 15.9998C13.3337 15.2926 13.6146 14.6143 14.1147 14.1142C14.6148 13.6141 15.2931 13.3332 16.0003 13.3332C16.7076 13.3332 17.3858 13.6141 17.8859 14.1142C18.386 14.6143 18.667 15.2926 18.667 15.9998C18.667 16.7071 18.386 17.3854 17.8859 17.8855C17.3858 18.3856 16.7076 18.6665 16.0003 18.6665Z" fill="#1D1D1D"/>
</svg>
